<svg xmlns="http://www.w3.org/2000/svg" viewBox="0 0 1920 1080" preserveAspectRatio="xMidYMid slice">
<defs><linearGradient id="s" x1="0" y1="0" x2="0" y2="1"><stop offset="0" stop-color="#0a101c"/><stop offset=".55" stop-color="#26304a"/><stop offset=".85" stop-color="#8a7050"/><stop offset="1" stop-color="#c9a877"/></linearGradient></defs><rect width="1920" height="1080" fill="url(#s)"/>
<rect x="-30" y="466" width="71" height="534" fill="#2a3450" fill-opacity="0.55"/>
<rect x="51" y="435" width="86" height="565" fill="#2a3450" fill-opacity="0.55"/>
<rect x="142" y="587" width="115" height="413" fill="#2a3450" fill-opacity="0.55"/>
<rect x="254" y="679" width="150" height="321" fill="#2a3450" fill-opacity="0.55"/>
<rect x="328.0" y="619" width="2" height="60" fill="#2a3450"/>
<rect x="412" y="645" width="104" height="355" fill="#2a3450" fill-opacity="0.55"/>
<rect x="463.0" y="585" width="2" height="60" fill="#2a3450"/>
<rect x="513" y="659" width="79" height="341" fill="#2a3450" fill-opacity="0.55"/>
<rect x="595" y="454" width="128" height="546" fill="#2a3450" fill-opacity="0.55"/>
<rect x="658.0" y="394" width="2" height="60" fill="#2a3450"/>
<rect x="723" y="426" width="119" height="574" fill="#2a3450" fill-opacity="0.55"/>
<rect x="852" y="669" width="97" height="331" fill="#2a3450" fill-opacity="0.55"/>
<rect x="941" y="670" width="65" height="330" fill="#2a3450" fill-opacity="0.55"/>
<rect x="1013" y="505" width="143" height="495" fill="#2a3450" fill-opacity="0.55"/>
<rect x="1150" y="661" width="73" height="339" fill="#2a3450" fill-opacity="0.55"/>
<rect x="1220" y="579" width="59" height="421" fill="#2a3450" fill-opacity="0.55"/>
<rect x="1290" y="383" width="146" height="617" fill="#2a3450" fill-opacity="0.55"/>
<rect x="1428" y="394" width="65" height="606" fill="#2a3450" fill-opacity="0.55"/>
<rect x="1495" y="506" width="75" height="494" fill="#2a3450" fill-opacity="0.55"/>
<rect x="1577" y="531" width="102" height="469" fill="#2a3450" fill-opacity="0.55"/>
<rect x="1683" y="483" width="114" height="517" fill="#2a3450" fill-opacity="0.55"/>
<rect x="1802" y="544" width="99" height="456" fill="#2a3450" fill-opacity="0.55"/>
<rect x="1850.5" y="484" width="2" height="60" fill="#2a3450"/>
<rect x="1893" y="427" width="70" height="573" fill="#2a3450" fill-opacity="0.55"/>
<rect x="1927.0" y="367" width="2" height="60" fill="#2a3450"/>
<rect x="-30" y="434" width="120" height="646" fill="#161d30" fill-opacity="0.8"/>
<rect x="87" y="429" width="123" height="651" fill="#161d30" fill-opacity="0.8"/>
<rect x="219" y="648" width="64" height="432" fill="#161d30" fill-opacity="0.8"/>
<rect x="293" y="570" width="94" height="510" fill="#161d30" fill-opacity="0.8"/>
<rect x="396" y="615" width="89" height="465" fill="#161d30" fill-opacity="0.8"/>
<rect x="439.5" y="555" width="2" height="60" fill="#161d30"/>
<rect x="477" y="343" width="72" height="737" fill="#161d30" fill-opacity="0.8"/>
<rect x="544" y="722" width="137" height="358" fill="#161d30" fill-opacity="0.8"/>
<rect x="692" y="532" width="80" height="548" fill="#161d30" fill-opacity="0.8"/>
<rect x="767" y="438" width="144" height="642" fill="#161d30" fill-opacity="0.8"/>
<rect x="838.0" y="378" width="2" height="60" fill="#161d30"/>
<rect x="912" y="481" width="112" height="599" fill="#161d30" fill-opacity="0.8"/>
<rect x="1021" y="657" width="81" height="423" fill="#161d30" fill-opacity="0.8"/>
<rect x="1106" y="344" width="102" height="736" fill="#161d30" fill-opacity="0.8"/>
<rect x="1199" y="714" width="86" height="366" fill="#161d30" fill-opacity="0.8"/>
<rect x="1296" y="723" width="87" height="357" fill="#161d30" fill-opacity="0.8"/>
<rect x="1378" y="705" width="100" height="375" fill="#161d30" fill-opacity="0.8"/>
<rect x="1488" y="663" width="68" height="417" fill="#161d30" fill-opacity="0.8"/>
<rect x="1561" y="611" width="56" height="469" fill="#161d30" fill-opacity="0.8"/>
<rect x="1588.0" y="551" width="2" height="60" fill="#161d30"/>
<rect x="1627" y="367" width="117" height="713" fill="#161d30" fill-opacity="0.8"/>
<rect x="1740" y="333" width="96" height="747" fill="#161d30" fill-opacity="0.8"/>
<rect x="1837" y="345" width="126" height="735" fill="#161d30" fill-opacity="0.8"/>
<rect x="-30" y="525" width="111" height="675" fill="#0B1220" fill-opacity="0.95"/>
<rect x="-22" y="535" width="95" height="2.500" fill="#F0DDB0" fill-opacity=".5"/>
<rect x="-22" y="587" width="95" height="2.500" fill="#F0DDB0" fill-opacity=".5"/>
<rect x="-22" y="665" width="95" height="2.500" fill="#F0DDB0" fill-opacity=".5"/>
<rect x="-22" y="925" width="95" height="2.500" fill="#F0DDB0" fill-opacity=".5"/>
<rect x="-22" y="951" width="95" height="2.500" fill="#F0DDB0" fill-opacity=".5"/>
<rect x="91" y="696" width="107" height="504" fill="#0B1220" fill-opacity="0.95"/>
<rect x="99" y="706" width="91" height="2.500" fill="#F0DDB0" fill-opacity=".5"/>
<rect x="99" y="732" width="91" height="2.500" fill="#F0DDB0" fill-opacity=".5"/>
<rect x="189" y="324" width="127" height="876" fill="#0B1220" fill-opacity="0.95"/>
<rect x="197" y="412" width="111" height="2.500" fill="#F0DDB0" fill-opacity=".5"/>
<rect x="197" y="464" width="111" height="2.500" fill="#F0DDB0" fill-opacity=".5"/>
<rect x="197" y="516" width="111" height="2.500" fill="#F0DDB0" fill-opacity=".5"/>
<rect x="197" y="646" width="111" height="2.500" fill="#F0DDB0" fill-opacity=".5"/>
<rect x="197" y="854" width="111" height="2.500" fill="#F0DDB0" fill-opacity=".5"/>
<rect x="322" y="646" width="147" height="554" fill="#0B1220" fill-opacity="0.95"/>
<rect x="330" y="656" width="131" height="2.500" fill="#F0DDB0" fill-opacity=".5"/>
<rect x="330" y="812" width="131" height="2.500" fill="#F0DDB0" fill-opacity=".5"/>
<rect x="330" y="838" width="131" height="2.500" fill="#F0DDB0" fill-opacity=".5"/>
<rect x="330" y="864" width="131" height="2.500" fill="#F0DDB0" fill-opacity=".5"/>
<rect x="394.5" y="586" width="2" height="60" fill="#0B1220"/>
<rect x="479" y="387" width="140" height="813" fill="#0B1220" fill-opacity="0.95"/>
<rect x="487" y="475" width="124" height="2.500" fill="#F0DDB0" fill-opacity=".5"/>
<rect x="487" y="501" width="124" height="2.500" fill="#F0DDB0" fill-opacity=".5"/>
<rect x="487" y="553" width="124" height="2.500" fill="#F0DDB0" fill-opacity=".5"/>
<rect x="487" y="839" width="124" height="2.500" fill="#F0DDB0" fill-opacity=".5"/>
<rect x="487" y="865" width="124" height="2.500" fill="#F0DDB0" fill-opacity=".5"/>
<rect x="628" y="572" width="135" height="628" fill="#0B1220" fill-opacity="0.95"/>
<rect x="636" y="764" width="119" height="2.500" fill="#F0DDB0" fill-opacity=".5"/>
<rect x="636" y="868" width="119" height="2.500" fill="#F0DDB0" fill-opacity=".5"/>
<rect x="636" y="920" width="119" height="2.500" fill="#F0DDB0" fill-opacity=".5"/>
<rect x="767" y="670" width="63" height="530" fill="#0B1220" fill-opacity="0.95"/>
<rect x="775" y="940" width="47" height="2.500" fill="#F0DDB0" fill-opacity=".5"/>
<rect x="839" y="556" width="138" height="644" fill="#0B1220" fill-opacity="0.95"/>
<rect x="847" y="592" width="122" height="2.500" fill="#F0DDB0" fill-opacity=".5"/>
<rect x="847" y="800" width="122" height="2.500" fill="#F0DDB0" fill-opacity=".5"/>
<rect x="847" y="982" width="122" height="2.500" fill="#F0DDB0" fill-opacity=".5"/>
<rect x="979" y="389" width="127" height="811" fill="#0B1220" fill-opacity="0.95"/>
<rect x="987" y="451" width="111" height="2.500" fill="#F0DDB0" fill-opacity=".5"/>
<rect x="987" y="503" width="111" height="2.500" fill="#F0DDB0" fill-opacity=".5"/>
<rect x="987" y="633" width="111" height="2.500" fill="#F0DDB0" fill-opacity=".5"/>
<rect x="987" y="737" width="111" height="2.500" fill="#F0DDB0" fill-opacity=".5"/>
<rect x="987" y="971" width="111" height="2.500" fill="#F0DDB0" fill-opacity=".5"/>
<rect x="1098" y="648" width="105" height="552" fill="#0B1220" fill-opacity="0.95"/>
<rect x="1106" y="658" width="89" height="2.500" fill="#F0DDB0" fill-opacity=".5"/>
<rect x="1106" y="840" width="89" height="2.500" fill="#F0DDB0" fill-opacity=".5"/>
<rect x="1106" y="866" width="89" height="2.500" fill="#F0DDB0" fill-opacity=".5"/>
<rect x="1106" y="944" width="89" height="2.500" fill="#F0DDB0" fill-opacity=".5"/>
<rect x="1198" y="740" width="115" height="460" fill="#0B1220" fill-opacity="0.95"/>
<rect x="1206" y="828" width="99" height="2.500" fill="#F0DDB0" fill-opacity=".5"/>
<rect x="1206" y="854" width="99" height="2.500" fill="#F0DDB0" fill-opacity=".5"/>
<rect x="1206" y="958" width="99" height="2.500" fill="#F0DDB0" fill-opacity=".5"/>
<rect x="1206" y="984" width="99" height="2.500" fill="#F0DDB0" fill-opacity=".5"/>
<rect x="1320" y="422" width="82" height="778" fill="#0B1220" fill-opacity="0.95"/>
<rect x="1328" y="718" width="66" height="2.500" fill="#F0DDB0" fill-opacity=".5"/>
<rect x="1328" y="848" width="66" height="2.500" fill="#F0DDB0" fill-opacity=".5"/>
<rect x="1328" y="900" width="66" height="2.500" fill="#F0DDB0" fill-opacity=".5"/>
<rect x="1395" y="441" width="89" height="759" fill="#0B1220" fill-opacity="0.95"/>
<rect x="1403" y="581" width="73" height="2.500" fill="#F0DDB0" fill-opacity=".5"/>
<rect x="1403" y="633" width="73" height="2.500" fill="#F0DDB0" fill-opacity=".5"/>
<rect x="1493" y="480" width="72" height="720" fill="#0B1220" fill-opacity="0.95"/>
<rect x="1501" y="568" width="56" height="2.500" fill="#F0DDB0" fill-opacity=".5"/>
<rect x="1501" y="594" width="56" height="2.500" fill="#F0DDB0" fill-opacity=".5"/>
<rect x="1501" y="672" width="56" height="2.500" fill="#F0DDB0" fill-opacity=".5"/>
<rect x="1501" y="750" width="56" height="2.500" fill="#F0DDB0" fill-opacity=".5"/>
<rect x="1501" y="880" width="56" height="2.500" fill="#F0DDB0" fill-opacity=".5"/>
<rect x="1575" y="581" width="77" height="619" fill="#0B1220" fill-opacity="0.95"/>
<rect x="1583" y="695" width="61" height="2.500" fill="#F0DDB0" fill-opacity=".5"/>
<rect x="1583" y="877" width="61" height="2.500" fill="#F0DDB0" fill-opacity=".5"/>
<rect x="1583" y="929" width="61" height="2.500" fill="#F0DDB0" fill-opacity=".5"/>
<rect x="1583" y="955" width="61" height="2.500" fill="#F0DDB0" fill-opacity=".5"/>
<rect x="1583" y="981" width="61" height="2.500" fill="#F0DDB0" fill-opacity=".5"/>
<rect x="1660" y="372" width="87" height="828" fill="#0B1220" fill-opacity="0.95"/>
<rect x="1668" y="512" width="71" height="2.500" fill="#F0DDB0" fill-opacity=".5"/>
<rect x="1702.5" y="312" width="2" height="60" fill="#0B1220"/>
<rect x="1746" y="707" width="81" height="493" fill="#0B1220" fill-opacity="0.95"/>
<rect x="1754" y="717" width="65" height="2.500" fill="#F0DDB0" fill-opacity=".5"/>
<rect x="1837" y="463" width="116" height="737" fill="#0B1220" fill-opacity="0.95"/>
<rect x="1845" y="473" width="100" height="2.500" fill="#F0DDB0" fill-opacity=".5"/>
<rect x="1845" y="603" width="100" height="2.500" fill="#F0DDB0" fill-opacity=".5"/>
<rect x="1845" y="889" width="100" height="2.500" fill="#F0DDB0" fill-opacity=".5"/>
<rect x="1845" y="941" width="100" height="2.500" fill="#F0DDB0" fill-opacity=".5"/>
</svg>