<svg xmlns="http://www.w3.org/2000/svg" viewBox="0 0 1920 1080" preserveAspectRatio="xMidYMid slice"><defs><linearGradient id="bgi" x1="0" y1="0" x2="1" y2="1"><stop offset="0" stop-color="#0a1120"/><stop offset="1" stop-color="#172038"/></linearGradient><radialGradient id="gli" cx="1200" cy="300" r="900" gradientUnits="userSpaceOnUse"><stop offset="0" stop-color="#E9D3A4" stop-opacity=".34"/><stop offset=".55" stop-color="#C5A46D" stop-opacity=".08"/><stop offset="1" stop-color="#C5A46D" stop-opacity="0"/></radialGradient><linearGradient id="fdi" x1="0" y1="0" x2="0" y2="1"><stop offset="0" stop-color="#0B1220" stop-opacity="0"/><stop offset="1" stop-color="#0B1220" stop-opacity=".85"/></linearGradient></defs><rect width="1920" height="1080" fill="url(#bgi)"/><rect width="1920" height="1080" fill="url(#gli)"/><line x1="0" y1="640" x2="-1152" y2="1080" stroke="#C5A46D" stroke-opacity=".1"/><line x1="80" y1="640" x2="-976.0000000000002" y2="1080" stroke="#C5A46D" stroke-opacity=".1"/><line x1="160" y1="640" x2="-800.0000000000002" y2="1080" stroke="#C5A46D" stroke-opacity=".1"/><line x1="240" y1="640" x2="-624.0000000000002" y2="1080" stroke="#C5A46D" stroke-opacity=".1"/><line x1="320" y1="640" x2="-448" y2="1080" stroke="#C5A46D" stroke-opacity=".1"/><line x1="400" y1="640" x2="-272" y2="1080" stroke="#C5A46D" stroke-opacity=".1"/><line x1="480" y1="640" x2="-96" y2="1080" stroke="#C5A46D" stroke-opacity=".1"/><line x1="560" y1="640" x2="79.99999999999989" y2="1080" stroke="#C5A46D" stroke-opacity=".1"/><line x1="640" y1="640" x2="256" y2="1080" stroke="#C5A46D" stroke-opacity=".1"/><line x1="720" y1="640" x2="432" y2="1080" stroke="#C5A46D" stroke-opacity=".1"/><line x1="800" y1="640" x2="608" y2="1080" stroke="#C5A46D" stroke-opacity=".1"/><line x1="880" y1="640" x2="784" y2="1080" stroke="#C5A46D" stroke-opacity=".1"/><line x1="960" y1="640" x2="960" y2="1080" stroke="#C5A46D" stroke-opacity=".1"/><line x1="1040" y1="640" x2="1136" y2="1080" stroke="#C5A46D" stroke-opacity=".1"/><line x1="1120" y1="640" x2="1312" y2="1080" stroke="#C5A46D" stroke-opacity=".1"/><line x1="1200" y1="640" x2="1488" y2="1080" stroke="#C5A46D" stroke-opacity=".1"/><line x1="1280" y1="640" x2="1664" y2="1080" stroke="#C5A46D" stroke-opacity=".1"/><line x1="1360" y1="640" x2="1840" y2="1080" stroke="#C5A46D" stroke-opacity=".1"/><line x1="1440" y1="640" x2="2016" y2="1080" stroke="#C5A46D" stroke-opacity=".1"/><line x1="1520" y1="640" x2="2192" y2="1080" stroke="#C5A46D" stroke-opacity=".1"/><line x1="1600" y1="640" x2="2368" y2="1080" stroke="#C5A46D" stroke-opacity=".1"/><line x1="1680" y1="640" x2="2544" y2="1080" stroke="#C5A46D" stroke-opacity=".1"/><line x1="1760" y1="640" x2="2720" y2="1080" stroke="#C5A46D" stroke-opacity=".1"/><line x1="1840" y1="640" x2="2896" y2="1080" stroke="#C5A46D" stroke-opacity=".1"/><line x1="1920" y1="640" x2="3072" y2="1080" stroke="#C5A46D" stroke-opacity=".1"/><line x1="0" y1="640" x2="1920" y2="640" stroke="#C5A46D" stroke-opacity=".1"/><line x1="0" y1="684" x2="1920" y2="684" stroke="#C5A46D" stroke-opacity=".1"/><line x1="0" y1="728" x2="1920" y2="728" stroke="#C5A46D" stroke-opacity=".1"/><line x1="0" y1="772" x2="1920" y2="772" stroke="#C5A46D" stroke-opacity=".1"/><line x1="0" y1="816" x2="1920" y2="816" stroke="#C5A46D" stroke-opacity=".1"/><line x1="0" y1="860" x2="1920" y2="860" stroke="#C5A46D" stroke-opacity=".1"/><line x1="0" y1="904" x2="1920" y2="904" stroke="#C5A46D" stroke-opacity=".1"/><line x1="0" y1="948" x2="1920" y2="948" stroke="#C5A46D" stroke-opacity=".1"/><line x1="0" y1="992" x2="1920" y2="992" stroke="#C5A46D" stroke-opacity=".1"/><line x1="0" y1="1036" x2="1920" y2="1036" stroke="#C5A46D" stroke-opacity=".1"/><line x1="0" y1="1080" x2="1920" y2="1080" stroke="#C5A46D" stroke-opacity=".1"/><polygon points="240,520 460,520 460,940 240,940" fill="rgb(22,34,56)" stroke="#C5A46D" stroke-opacity=".5"/><polygon points="240,520 320,476 540,476 460,520" fill="rgb(36,48,74)" stroke="#C5A46D" stroke-opacity=".5"/><polygon points="460,520 540,476 540,896 460,940" fill="rgb(16,26,48)" stroke="#C5A46D" stroke-opacity=".5"/><rect x="284" y="538" width="14" height="18" fill="#C5A46D" opacity="0.5"/><rect x="314" y="538" width="14" height="18" fill="#C5A46D" opacity="0.6"/><rect x="344" y="538" width="14" height="18" fill="#C5A46D" opacity="0.7"/><rect x="374" y="538" width="14" height="18" fill="#C5A46D" opacity="0.8"/><rect x="434" y="538" width="14" height="18" fill="#C5A46D" opacity="0.5"/><rect x="254" y="572" width="14" height="18" fill="#C5A46D" opacity="0.8"/><rect x="314" y="572" width="14" height="18" fill="#C5A46D" opacity="0.3"/><rect x="344" y="572" width="14" height="18" fill="#C5A46D" opacity="0.5"/><rect x="434" y="572" width="14" height="18" fill="#C5A46D" opacity="0.5"/><rect x="284" y="606" width="14" height="18" fill="#C5A46D" opacity="0.4"/><rect x="314" y="606" width="14" height="18" fill="#C5A46D" opacity="0.4"/><rect x="344" y="606" width="14" height="18" fill="#C5A46D" opacity="0.8"/><rect x="374" y="606" width="14" height="18" fill="#C5A46D" opacity="0.7"/><rect x="404" y="606" width="14" height="18" fill="#C5A46D" opacity="0.8"/><rect x="434" y="606" width="14" height="18" fill="#C5A46D" opacity="0.8"/><rect x="284" y="640" width="14" height="18" fill="#C5A46D" opacity="0.8"/><rect x="404" y="640" width="14" height="18" fill="#C5A46D" opacity="0.7"/><rect x="434" y="640" width="14" height="18" fill="#C5A46D" opacity="0.6"/><rect x="284" y="674" width="14" height="18" fill="#C5A46D" opacity="0.4"/><rect x="314" y="674" width="14" height="18" fill="#C5A46D" opacity="0.7"/><rect x="344" y="674" width="14" height="18" fill="#C5A46D" opacity="0.4"/><rect x="374" y="674" width="14" height="18" fill="#C5A46D" opacity="0.8"/><rect x="404" y="674" width="14" height="18" fill="#C5A46D" opacity="0.8"/><rect x="434" y="674" width="14" height="18" fill="#C5A46D" opacity="0.5"/><rect x="254" y="708" width="14" height="18" fill="#C5A46D" opacity="0.4"/><rect x="314" y="708" width="14" height="18" fill="#C5A46D" opacity="0.7"/><rect x="344" y="708" width="14" height="18" fill="#C5A46D" opacity="0.6"/><rect x="374" y="708" width="14" height="18" fill="#C5A46D" opacity="0.7"/><rect x="434" y="708" width="14" height="18" fill="#C5A46D" opacity="0.4"/><rect x="254" y="742" width="14" height="18" fill="#C5A46D" opacity="0.4"/><rect x="314" y="742" width="14" height="18" fill="#C5A46D" opacity="0.8"/><rect x="344" y="742" width="14" height="18" fill="#C5A46D" opacity="0.5"/><rect x="374" y="742" width="14" height="18" fill="#C5A46D" opacity="0.6"/><rect x="404" y="742" width="14" height="18" fill="#C5A46D" opacity="0.6"/><rect x="434" y="742" width="14" height="18" fill="#C5A46D" opacity="0.8"/><rect x="254" y="776" width="14" height="18" fill="#C5A46D" opacity="0.6"/><rect x="284" y="776" width="14" height="18" fill="#C5A46D" opacity="0.5"/><rect x="314" y="776" width="14" height="18" fill="#C5A46D" opacity="0.6"/><rect x="374" y="776" width="14" height="18" fill="#C5A46D" opacity="0.3"/><rect x="434" y="776" width="14" height="18" fill="#C5A46D" opacity="0.8"/><rect x="254" y="810" width="14" height="18" fill="#C5A46D" opacity="0.8"/><rect x="284" y="810" width="14" height="18" fill="#C5A46D" opacity="0.7"/><rect x="314" y="810" width="14" height="18" fill="#C5A46D" opacity="0.7"/><rect x="344" y="810" width="14" height="18" fill="#C5A46D" opacity="0.7"/><rect x="434" y="810" width="14" height="18" fill="#C5A46D" opacity="0.6"/><rect x="254" y="844" width="14" height="18" fill="#C5A46D" opacity="0.7"/><rect x="284" y="844" width="14" height="18" fill="#C5A46D" opacity="0.6"/><rect x="314" y="844" width="14" height="18" fill="#C5A46D" opacity="0.3"/><rect x="344" y="844" width="14" height="18" fill="#C5A46D" opacity="0.8"/><rect x="374" y="844" width="14" height="18" fill="#C5A46D" opacity="0.6"/><rect x="404" y="844" width="14" height="18" fill="#C5A46D" opacity="0.7"/><rect x="434" y="844" width="14" height="18" fill="#C5A46D" opacity="0.6"/><rect x="254" y="878" width="14" height="18" fill="#C5A46D" opacity="0.6"/><rect x="314" y="878" width="14" height="18" fill="#C5A46D" opacity="0.8"/><rect x="344" y="878" width="14" height="18" fill="#C5A46D" opacity="0.4"/><rect x="434" y="878" width="14" height="18" fill="#C5A46D" opacity="0.5"/><rect x="284" y="912" width="14" height="18" fill="#C5A46D" opacity="0.5"/><rect x="314" y="912" width="14" height="18" fill="#C5A46D" opacity="0.7"/><rect x="344" y="912" width="14" height="18" fill="#C5A46D" opacity="0.7"/><rect x="374" y="912" width="14" height="18" fill="#C5A46D" opacity="0.8"/><rect x="404" y="912" width="14" height="18" fill="#C5A46D" opacity="0.7"/><polygon points="560,400 820,400 820,940 560,940" fill="rgb(26,38,60)" stroke="#C5A46D" stroke-opacity=".5"/><polygon points="560,400 660,345 920,345 820,400" fill="rgb(40,52,78)" stroke="#C5A46D" stroke-opacity=".5"/><polygon points="820,400 920,345 920,885 820,940" fill="rgb(20,30,52)" stroke="#C5A46D" stroke-opacity=".5"/><rect x="634" y="418" width="14" height="18" fill="#C5A46D" opacity="0.6"/><rect x="694" y="418" width="14" height="18" fill="#C5A46D" opacity="0.4"/><rect x="724" y="418" width="14" height="18" fill="#C5A46D" opacity="0.6"/><rect x="754" y="418" width="14" height="18" fill="#C5A46D" opacity="0.6"/><rect x="784" y="418" width="14" height="18" fill="#C5A46D" opacity="0.6"/><rect x="574" y="452" width="14" height="18" fill="#C5A46D" opacity="0.4"/><rect x="604" y="452" width="14" height="18" fill="#C5A46D" opacity="0.6"/><rect x="634" y="452" width="14" height="18" fill="#C5A46D" opacity="0.5"/><rect x="664" y="452" width="14" height="18" fill="#C5A46D" opacity="0.6"/><rect x="784" y="452" width="14" height="18" fill="#C5A46D" opacity="0.8"/><rect x="574" y="486" width="14" height="18" fill="#C5A46D" opacity="0.3"/><rect x="604" y="486" width="14" height="18" fill="#C5A46D" opacity="0.4"/><rect x="664" y="486" width="14" height="18" fill="#C5A46D" opacity="0.7"/><rect x="694" y="486" width="14" height="18" fill="#C5A46D" opacity="0.7"/><rect x="724" y="486" width="14" height="18" fill="#C5A46D" opacity="0.4"/><rect x="754" y="486" width="14" height="18" fill="#C5A46D" opacity="0.5"/><rect x="784" y="486" width="14" height="18" fill="#C5A46D" opacity="0.3"/><rect x="574" y="520" width="14" height="18" fill="#C5A46D" opacity="0.4"/><rect x="664" y="520" width="14" height="18" fill="#C5A46D" opacity="0.5"/><rect x="694" y="520" width="14" height="18" fill="#C5A46D" opacity="0.5"/><rect x="784" y="520" width="14" height="18" fill="#C5A46D" opacity="0.4"/><rect x="724" y="554" width="14" height="18" fill="#C5A46D" opacity="0.3"/><rect x="754" y="554" width="14" height="18" fill="#C5A46D" opacity="0.6"/><rect x="574" y="588" width="14" height="18" fill="#C5A46D" opacity="0.5"/><rect x="604" y="588" width="14" height="18" fill="#C5A46D" opacity="0.8"/><rect x="754" y="588" width="14" height="18" fill="#C5A46D" opacity="0.3"/><rect x="634" y="622" width="14" height="18" fill="#C5A46D" opacity="0.7"/><rect x="664" y="622" width="14" height="18" fill="#C5A46D" opacity="0.7"/><rect x="694" y="622" width="14" height="18" fill="#C5A46D" opacity="0.4"/><rect x="724" y="622" width="14" height="18" fill="#C5A46D" opacity="0.6"/><rect x="754" y="622" width="14" height="18" fill="#C5A46D" opacity="0.5"/><rect x="784" y="622" width="14" height="18" fill="#C5A46D" opacity="0.3"/><rect x="574" y="656" width="14" height="18" fill="#C5A46D" opacity="0.7"/><rect x="604" y="656" width="14" height="18" fill="#C5A46D" opacity="0.4"/><rect x="634" y="656" width="14" height="18" fill="#C5A46D" opacity="0.8"/><rect x="694" y="656" width="14" height="18" fill="#C5A46D" opacity="0.4"/><rect x="724" y="656" width="14" height="18" fill="#C5A46D" opacity="0.8"/><rect x="574" y="690" width="14" height="18" fill="#C5A46D" opacity="0.3"/><rect x="604" y="690" width="14" height="18" fill="#C5A46D" opacity="0.6"/><rect x="724" y="690" width="14" height="18" fill="#C5A46D" opacity="0.7"/><rect x="784" y="690" width="14" height="18" fill="#C5A46D" opacity="0.4"/><rect x="574" y="724" width="14" height="18" fill="#C5A46D" opacity="0.7"/><rect x="604" y="724" width="14" height="18" fill="#C5A46D" opacity="0.8"/><rect x="634" y="724" width="14" height="18" fill="#C5A46D" opacity="0.6"/><rect x="694" y="724" width="14" height="18" fill="#C5A46D" opacity="0.7"/><rect x="724" y="724" width="14" height="18" fill="#C5A46D" opacity="0.6"/><rect x="754" y="724" width="14" height="18" fill="#C5A46D" opacity="0.4"/><rect x="574" y="758" width="14" height="18" fill="#C5A46D" opacity="0.5"/><rect x="604" y="758" width="14" height="18" fill="#C5A46D" opacity="0.7"/><rect x="664" y="758" width="14" height="18" fill="#C5A46D" opacity="0.5"/><rect x="754" y="758" width="14" height="18" fill="#C5A46D" opacity="0.7"/><rect x="574" y="792" width="14" height="18" fill="#C5A46D" opacity="0.8"/><rect x="634" y="792" width="14" height="18" fill="#C5A46D" opacity="0.3"/><rect x="694" y="792" width="14" height="18" fill="#C5A46D" opacity="0.8"/><rect x="754" y="792" width="14" height="18" fill="#C5A46D" opacity="0.4"/><rect x="604" y="826" width="14" height="18" fill="#C5A46D" opacity="0.7"/><rect x="664" y="826" width="14" height="18" fill="#C5A46D" opacity="0.7"/><rect x="694" y="826" width="14" height="18" fill="#C5A46D" opacity="0.5"/><rect x="724" y="826" width="14" height="18" fill="#C5A46D" opacity="0.5"/><rect x="754" y="826" width="14" height="18" fill="#C5A46D" opacity="0.7"/><rect x="784" y="826" width="14" height="18" fill="#C5A46D" opacity="0.7"/><rect x="574" y="860" width="14" height="18" fill="#C5A46D" opacity="0.8"/><rect x="724" y="860" width="14" height="18" fill="#C5A46D" opacity="0.8"/><rect x="754" y="860" width="14" height="18" fill="#C5A46D" opacity="0.4"/><rect x="784" y="860" width="14" height="18" fill="#C5A46D" opacity="0.8"/><rect x="574" y="894" width="14" height="18" fill="#C5A46D" opacity="0.3"/><rect x="604" y="894" width="14" height="18" fill="#C5A46D" opacity="0.6"/><rect x="634" y="894" width="14" height="18" fill="#C5A46D" opacity="0.4"/><rect x="754" y="894" width="14" height="18" fill="#C5A46D" opacity="0.6"/><rect x="784" y="894" width="14" height="18" fill="#C5A46D" opacity="0.6"/><polygon points="930,300 1170,300 1170,940 930,940" fill="rgb(30,42,64)" stroke="#C5A46D" stroke-opacity=".5"/><polygon points="930,300 1020,250.5 1260,250.5 1170,300" fill="rgb(44,56,82)" stroke="#C5A46D" stroke-opacity=".5"/><polygon points="1170,300 1260,250.5 1260,890.5 1170,940" fill="rgb(24,34,56)" stroke="#C5A46D" stroke-opacity=".5"/><rect x="944" y="318" width="14" height="18" fill="#C5A46D" opacity="0.7"/><rect x="974" y="318" width="14" height="18" fill="#C5A46D" opacity="0.5"/><rect x="1004" y="318" width="14" height="18" fill="#C5A46D" opacity="0.4"/><rect x="944" y="352" width="14" height="18" fill="#C5A46D" opacity="0.3"/><rect x="1034" y="352" width="14" height="18" fill="#C5A46D" opacity="0.8"/><rect x="1064" y="352" width="14" height="18" fill="#C5A46D" opacity="0.6"/><rect x="1124" y="352" width="14" height="18" fill="#C5A46D" opacity="0.5"/><rect x="944" y="386" width="14" height="18" fill="#C5A46D" opacity="0.5"/><rect x="974" y="386" width="14" height="18" fill="#C5A46D" opacity="0.4"/><rect x="1034" y="386" width="14" height="18" fill="#C5A46D" opacity="0.6"/><rect x="1064" y="386" width="14" height="18" fill="#C5A46D" opacity="0.6"/><rect x="1124" y="386" width="14" height="18" fill="#C5A46D" opacity="0.4"/><rect x="974" y="420" width="14" height="18" fill="#C5A46D" opacity="0.4"/><rect x="1004" y="420" width="14" height="18" fill="#C5A46D" opacity="0.5"/><rect x="1064" y="420" width="14" height="18" fill="#C5A46D" opacity="0.4"/><rect x="1124" y="420" width="14" height="18" fill="#C5A46D" opacity="0.7"/><rect x="1004" y="454" width="14" height="18" fill="#C5A46D" opacity="0.7"/><rect x="1034" y="454" width="14" height="18" fill="#C5A46D" opacity="0.3"/><rect x="1064" y="454" width="14" height="18" fill="#C5A46D" opacity="0.3"/><rect x="944" y="488" width="14" height="18" fill="#C5A46D" opacity="0.6"/><rect x="1004" y="488" width="14" height="18" fill="#C5A46D" opacity="0.5"/><rect x="944" y="522" width="14" height="18" fill="#C5A46D" opacity="0.4"/><rect x="974" y="522" width="14" height="18" fill="#C5A46D" opacity="0.8"/><rect x="1034" y="522" width="14" height="18" fill="#C5A46D" opacity="0.7"/><rect x="1064" y="522" width="14" height="18" fill="#C5A46D" opacity="0.3"/><rect x="1094" y="522" width="14" height="18" fill="#C5A46D" opacity="0.5"/><rect x="1124" y="522" width="14" height="18" fill="#C5A46D" opacity="0.4"/><rect x="944" y="556" width="14" height="18" fill="#C5A46D" opacity="0.7"/><rect x="974" y="556" width="14" height="18" fill="#C5A46D" opacity="0.5"/><rect x="1004" y="556" width="14" height="18" fill="#C5A46D" opacity="0.4"/><rect x="1034" y="556" width="14" height="18" fill="#C5A46D" opacity="0.3"/><rect x="1064" y="556" width="14" height="18" fill="#C5A46D" opacity="0.6"/><rect x="1094" y="556" width="14" height="18" fill="#C5A46D" opacity="0.4"/><rect x="1124" y="556" width="14" height="18" fill="#C5A46D" opacity="0.7"/><rect x="1034" y="590" width="14" height="18" fill="#C5A46D" opacity="0.7"/><rect x="1094" y="590" width="14" height="18" fill="#C5A46D" opacity="0.4"/><rect x="944" y="624" width="14" height="18" fill="#C5A46D" opacity="0.5"/><rect x="1004" y="624" width="14" height="18" fill="#C5A46D" opacity="0.3"/><rect x="1034" y="624" width="14" height="18" fill="#C5A46D" opacity="0.5"/><rect x="1064" y="624" width="14" height="18" fill="#C5A46D" opacity="0.8"/><rect x="944" y="658" width="14" height="18" fill="#C5A46D" opacity="0.8"/><rect x="974" y="658" width="14" height="18" fill="#C5A46D" opacity="0.4"/><rect x="1034" y="658" width="14" height="18" fill="#C5A46D" opacity="0.7"/><rect x="1094" y="658" width="14" height="18" fill="#C5A46D" opacity="0.5"/><rect x="1034" y="692" width="14" height="18" fill="#C5A46D" opacity="0.5"/><rect x="1064" y="692" width="14" height="18" fill="#C5A46D" opacity="0.7"/><rect x="1094" y="692" width="14" height="18" fill="#C5A46D" opacity="0.5"/><rect x="974" y="726" width="14" height="18" fill="#C5A46D" opacity="0.6"/><rect x="1004" y="726" width="14" height="18" fill="#C5A46D" opacity="0.8"/><rect x="1034" y="726" width="14" height="18" fill="#C5A46D" opacity="0.5"/><rect x="1094" y="726" width="14" height="18" fill="#C5A46D" opacity="0.6"/><rect x="1124" y="726" width="14" height="18" fill="#C5A46D" opacity="0.7"/><rect x="944" y="760" width="14" height="18" fill="#C5A46D" opacity="0.7"/><rect x="1004" y="760" width="14" height="18" fill="#C5A46D" opacity="0.7"/><rect x="1064" y="760" width="14" height="18" fill="#C5A46D" opacity="0.5"/><rect x="1094" y="760" width="14" height="18" fill="#C5A46D" opacity="0.3"/><rect x="974" y="794" width="14" height="18" fill="#C5A46D" opacity="0.8"/><rect x="1034" y="794" width="14" height="18" fill="#C5A46D" opacity="0.6"/><rect x="1094" y="794" width="14" height="18" fill="#C5A46D" opacity="0.6"/><rect x="944" y="828" width="14" height="18" fill="#C5A46D" opacity="0.6"/><rect x="974" y="828" width="14" height="18" fill="#C5A46D" opacity="0.4"/><rect x="1034" y="828" width="14" height="18" fill="#C5A46D" opacity="0.8"/><rect x="1064" y="828" width="14" height="18" fill="#C5A46D" opacity="0.5"/><rect x="1094" y="828" width="14" height="18" fill="#C5A46D" opacity="0.8"/><rect x="1124" y="828" width="14" height="18" fill="#C5A46D" opacity="0.5"/><rect x="974" y="862" width="14" height="18" fill="#C5A46D" opacity="0.5"/><rect x="1064" y="862" width="14" height="18" fill="#C5A46D" opacity="0.4"/><rect x="1124" y="862" width="14" height="18" fill="#C5A46D" opacity="0.5"/><rect x="974" y="896" width="14" height="18" fill="#C5A46D" opacity="0.8"/><rect x="1004" y="896" width="14" height="18" fill="#C5A46D" opacity="0.7"/><rect x="1064" y="896" width="14" height="18" fill="#C5A46D" opacity="0.6"/><rect x="1094" y="896" width="14" height="18" fill="#C5A46D" opacity="0.3"/><rect x="1124" y="896" width="14" height="18" fill="#C5A46D" opacity="0.4"/><polygon points="1270,460 1470,460 1470,940 1270,940" fill="rgb(24,36,58)" stroke="#C5A46D" stroke-opacity=".5"/><polygon points="1270,460 1340,421.5 1540,421.5 1470,460" fill="rgb(38,50,76)" stroke="#C5A46D" stroke-opacity=".5"/><polygon points="1470,460 1540,421.5 1540,901.5 1470,940" fill="rgb(18,28,50)" stroke="#C5A46D" stroke-opacity=".5"/><rect x="1284" y="478" width="14" height="18" fill="#C5A46D" opacity="0.4"/><rect x="1404" y="478" width="14" height="18" fill="#C5A46D" opacity="0.3"/><rect x="1434" y="478" width="14" height="18" fill="#C5A46D" opacity="0.8"/><rect x="1314" y="512" width="14" height="18" fill="#C5A46D" opacity="0.6"/><rect x="1344" y="512" width="14" height="18" fill="#C5A46D" opacity="0.6"/><rect x="1374" y="512" width="14" height="18" fill="#C5A46D" opacity="0.8"/><rect x="1404" y="512" width="14" height="18" fill="#C5A46D" opacity="0.6"/><rect x="1434" y="512" width="14" height="18" fill="#C5A46D" opacity="0.4"/><rect x="1314" y="546" width="14" height="18" fill="#C5A46D" opacity="0.3"/><rect x="1344" y="546" width="14" height="18" fill="#C5A46D" opacity="0.6"/><rect x="1374" y="546" width="14" height="18" fill="#C5A46D" opacity="0.8"/><rect x="1434" y="546" width="14" height="18" fill="#C5A46D" opacity="0.3"/><rect x="1284" y="580" width="14" height="18" fill="#C5A46D" opacity="0.5"/><rect x="1314" y="580" width="14" height="18" fill="#C5A46D" opacity="0.4"/><rect x="1344" y="580" width="14" height="18" fill="#C5A46D" opacity="0.8"/><rect x="1374" y="580" width="14" height="18" fill="#C5A46D" opacity="0.4"/><rect x="1284" y="614" width="14" height="18" fill="#C5A46D" opacity="0.8"/><rect x="1404" y="614" width="14" height="18" fill="#C5A46D" opacity="0.7"/><rect x="1434" y="614" width="14" height="18" fill="#C5A46D" opacity="0.8"/><rect x="1284" y="648" width="14" height="18" fill="#C5A46D" opacity="0.7"/><rect x="1314" y="648" width="14" height="18" fill="#C5A46D" opacity="0.6"/><rect x="1344" y="648" width="14" height="18" fill="#C5A46D" opacity="0.3"/><rect x="1404" y="648" width="14" height="18" fill="#C5A46D" opacity="0.4"/><rect x="1434" y="648" width="14" height="18" fill="#C5A46D" opacity="0.4"/><rect x="1344" y="682" width="14" height="18" fill="#C5A46D" opacity="0.4"/><rect x="1374" y="682" width="14" height="18" fill="#C5A46D" opacity="0.3"/><rect x="1434" y="682" width="14" height="18" fill="#C5A46D" opacity="0.8"/><rect x="1284" y="716" width="14" height="18" fill="#C5A46D" opacity="0.3"/><rect x="1314" y="716" width="14" height="18" fill="#C5A46D" opacity="0.8"/><rect x="1374" y="716" width="14" height="18" fill="#C5A46D" opacity="0.5"/><rect x="1404" y="716" width="14" height="18" fill="#C5A46D" opacity="0.3"/><rect x="1434" y="716" width="14" height="18" fill="#C5A46D" opacity="0.7"/><rect x="1344" y="750" width="14" height="18" fill="#C5A46D" opacity="0.3"/><rect x="1374" y="750" width="14" height="18" fill="#C5A46D" opacity="0.3"/><rect x="1434" y="750" width="14" height="18" fill="#C5A46D" opacity="0.5"/><rect x="1284" y="784" width="14" height="18" fill="#C5A46D" opacity="0.5"/><rect x="1344" y="784" width="14" height="18" fill="#C5A46D" opacity="0.8"/><rect x="1374" y="784" width="14" height="18" fill="#C5A46D" opacity="0.4"/><rect x="1404" y="784" width="14" height="18" fill="#C5A46D" opacity="0.5"/><rect x="1344" y="818" width="14" height="18" fill="#C5A46D" opacity="0.8"/><rect x="1374" y="818" width="14" height="18" fill="#C5A46D" opacity="0.3"/><rect x="1404" y="818" width="14" height="18" fill="#C5A46D" opacity="0.5"/><rect x="1434" y="818" width="14" height="18" fill="#C5A46D" opacity="0.7"/><rect x="1284" y="852" width="14" height="18" fill="#C5A46D" opacity="0.6"/><rect x="1314" y="852" width="14" height="18" fill="#C5A46D" opacity="0.6"/><rect x="1344" y="852" width="14" height="18" fill="#C5A46D" opacity="0.5"/><rect x="1374" y="852" width="14" height="18" fill="#C5A46D" opacity="0.4"/><rect x="1404" y="852" width="14" height="18" fill="#C5A46D" opacity="0.5"/><rect x="1284" y="920" width="14" height="18" fill="#C5A46D" opacity="0.7"/><rect x="1404" y="920" width="14" height="18" fill="#C5A46D" opacity="0.8"/><rect x="1434" y="920" width="14" height="18" fill="#C5A46D" opacity="0.4"/><polygon points="1560,560 1750,560 1750,940 1560,940" fill="rgb(20,32,54)" stroke="#C5A46D" stroke-opacity=".5"/><polygon points="1560,560 1620,527 1810,527 1750,560" fill="rgb(34,46,72)" stroke="#C5A46D" stroke-opacity=".5"/><polygon points="1750,560 1810,527 1810,907 1750,940" fill="rgb(14,24,46)" stroke="#C5A46D" stroke-opacity=".5"/><rect x="1634" y="578" width="14" height="18" fill="#C5A46D" opacity="0.7"/><rect x="1664" y="578" width="14" height="18" fill="#C5A46D" opacity="0.4"/><rect x="1724" y="578" width="14" height="18" fill="#C5A46D" opacity="0.7"/><rect x="1574" y="612" width="14" height="18" fill="#C5A46D" opacity="0.6"/><rect x="1604" y="612" width="14" height="18" fill="#C5A46D" opacity="0.3"/><rect x="1634" y="612" width="14" height="18" fill="#C5A46D" opacity="0.4"/><rect x="1694" y="612" width="14" height="18" fill="#C5A46D" opacity="0.6"/><rect x="1604" y="646" width="14" height="18" fill="#C5A46D" opacity="0.8"/><rect x="1634" y="646" width="14" height="18" fill="#C5A46D" opacity="0.6"/><rect x="1664" y="646" width="14" height="18" fill="#C5A46D" opacity="0.5"/><rect x="1724" y="680" width="14" height="18" fill="#C5A46D" opacity="0.5"/><rect x="1604" y="714" width="14" height="18" fill="#C5A46D" opacity="0.6"/><rect x="1634" y="714" width="14" height="18" fill="#C5A46D" opacity="0.7"/><rect x="1694" y="714" width="14" height="18" fill="#C5A46D" opacity="0.3"/><rect x="1574" y="748" width="14" height="18" fill="#C5A46D" opacity="0.8"/><rect x="1604" y="748" width="14" height="18" fill="#C5A46D" opacity="0.5"/><rect x="1634" y="748" width="14" height="18" fill="#C5A46D" opacity="0.4"/><rect x="1574" y="782" width="14" height="18" fill="#C5A46D" opacity="0.8"/><rect x="1634" y="782" width="14" height="18" fill="#C5A46D" opacity="0.8"/><rect x="1724" y="782" width="14" height="18" fill="#C5A46D" opacity="0.7"/><rect x="1634" y="816" width="14" height="18" fill="#C5A46D" opacity="0.5"/><rect x="1664" y="816" width="14" height="18" fill="#C5A46D" opacity="0.8"/><rect x="1694" y="816" width="14" height="18" fill="#C5A46D" opacity="0.5"/><rect x="1574" y="850" width="14" height="18" fill="#C5A46D" opacity="0.7"/><rect x="1694" y="850" width="14" height="18" fill="#C5A46D" opacity="0.7"/><rect x="1604" y="884" width="14" height="18" fill="#C5A46D" opacity="0.4"/><rect x="1664" y="884" width="14" height="18" fill="#C5A46D" opacity="0.7"/><rect x="1694" y="884" width="14" height="18" fill="#C5A46D" opacity="0.4"/><rect x="1724" y="884" width="14" height="18" fill="#C5A46D" opacity="0.3"/><rect x="1574" y="918" width="14" height="18" fill="#C5A46D" opacity="0.4"/><rect x="1604" y="918" width="14" height="18" fill="#C5A46D" opacity="0.6"/><rect x="1634" y="918" width="14" height="18" fill="#C5A46D" opacity="0.7"/><rect x="1664" y="918" width="14" height="18" fill="#C5A46D" opacity="0.6"/><rect x="1694" y="918" width="14" height="18" fill="#C5A46D" opacity="0.7"/><rect y="620" width="1920" height="460" fill="url(#fdi)"/></svg>