<svg xmlns="http://www.w3.org/2000/svg" viewBox="0 0 1920 1080" preserveAspectRatio="xMidYMid slice"><defs><linearGradient id="bgp" x1="0" y1="0" x2="1" y2="1"><stop offset="0" stop-color="#0a1120"/><stop offset="1" stop-color="#1c2846"/></linearGradient><radialGradient id="glp" cx="1300" cy="420" r="900" gradientUnits="userSpaceOnUse"><stop offset="0" stop-color="#E9D3A4" stop-opacity=".34"/><stop offset=".55" stop-color="#C5A46D" stop-opacity=".08"/><stop offset="1" stop-color="#C5A46D" stop-opacity="0"/></radialGradient><linearGradient id="fdp" x1="0" y1="0" x2="0" y2="1"><stop offset="0" stop-color="#0B1220" stop-opacity="0"/><stop offset="1" stop-color="#0B1220" stop-opacity=".85"/></linearGradient></defs><rect width="1920" height="1080" fill="url(#bgp)"/><rect width="1920" height="1080" fill="url(#glp)"/><circle cx="1280" cy="470" r="70" fill="none" stroke="#C5A46D" stroke-opacity="0.6" stroke-width="2" stroke-dasharray="2 9" /><circle cx="1280" cy="470" r="96" fill="none" stroke="#C5A46D" stroke-opacity="0.5" stroke-width="1"  /><circle cx="1280" cy="470" r="122" fill="none" stroke="#C5A46D" stroke-opacity="0.5" stroke-width="1"  /><circle cx="1280" cy="470" r="148" fill="none" stroke="#C5A46D" stroke-opacity="0.5" stroke-width="1" stroke-dasharray="2 9" /><circle cx="1280" cy="470" r="174" fill="none" stroke="#C5A46D" stroke-opacity="0.5" stroke-width="1"  /><circle cx="1280" cy="470" r="200" fill="none" stroke="#C5A46D" stroke-opacity="0.5" stroke-width="2"  /><circle cx="1280" cy="470" r="226" fill="none" stroke="#C5A46D" stroke-opacity="0.4" stroke-width="1" stroke-dasharray="2 9" /><circle cx="1280" cy="470" r="252" fill="none" stroke="#C5A46D" stroke-opacity="0.4" stroke-width="1"  /><circle cx="1280" cy="470" r="278" fill="none" stroke="#C5A46D" stroke-opacity="0.4" stroke-width="1"  /><circle cx="1280" cy="470" r="304" fill="none" stroke="#C5A46D" stroke-opacity="0.4" stroke-width="1" stroke-dasharray="2 9" /><circle cx="1280" cy="470" r="330" fill="none" stroke="#C5A46D" stroke-opacity="0.4" stroke-width="2"  /><circle cx="1280" cy="470" r="356" fill="none" stroke="#C5A46D" stroke-opacity="0.4" stroke-width="1"  /><circle cx="1280" cy="470" r="382" fill="none" stroke="#C5A46D" stroke-opacity="0.3" stroke-width="1" stroke-dasharray="2 9" /><circle cx="1280" cy="470" r="408" fill="none" stroke="#C5A46D" stroke-opacity="0.3" stroke-width="1"  /><circle cx="1280" cy="470" r="434" fill="none" stroke="#C5A46D" stroke-opacity="0.3" stroke-width="1"  /><circle cx="1280" cy="470" r="460" fill="none" stroke="#C5A46D" stroke-opacity="0.3" stroke-width="2" stroke-dasharray="2 9" /><circle cx="1280" cy="470" r="486" fill="none" stroke="#C5A46D" stroke-opacity="0.3" stroke-width="1"  /><circle cx="1280" cy="470" r="512" fill="none" stroke="#C5A46D" stroke-opacity="0.3" stroke-width="1"  /><circle cx="1280" cy="470" r="538" fill="none" stroke="#C5A46D" stroke-opacity="0.2" stroke-width="1" stroke-dasharray="2 9" /><circle cx="1280" cy="470" r="564" fill="none" stroke="#C5A46D" stroke-opacity="0.2" stroke-width="1"  /><circle cx="1280" cy="470" r="590" fill="none" stroke="#C5A46D" stroke-opacity="0.2" stroke-width="2"  /><circle cx="1280" cy="470" r="616" fill="none" stroke="#C5A46D" stroke-opacity="0.2" stroke-width="1" stroke-dasharray="2 9" /><circle cx="1280" cy="470" r="642" fill="none" stroke="#C5A46D" stroke-opacity="0.2" stroke-width="1"  /><circle cx="1280" cy="470" r="668" fill="none" stroke="#C5A46D" stroke-opacity="0.2" stroke-width="1"  /><circle cx="1280" cy="470" r="694" fill="none" stroke="#C5A46D" stroke-opacity="0.1" stroke-width="1" stroke-dasharray="2 9" /><circle cx="1280" cy="470" r="720" fill="none" stroke="#C5A46D" stroke-opacity="0.1" stroke-width="2"  /><circle cx="1280" cy="470" r="746" fill="none" stroke="#C5A46D" stroke-opacity="0.1" stroke-width="1"  /><circle cx="1280" cy="470" r="772" fill="none" stroke="#C5A46D" stroke-opacity="0.1" stroke-width="1" stroke-dasharray="2 9" /><line x1="1370" y1="470" x2="2080" y2="470" stroke="#C5A46D" stroke-opacity=".07"/><line x1="1366.9" y1="493.3" x2="2052.7" y2="677.1" stroke="#C5A46D" stroke-opacity=".07"/><line x1="1357.9" y1="515" x2="1972.8" y2="870" stroke="#C5A46D" stroke-opacity=".07"/><line x1="1343.6" y1="533.6" x2="1845.7" y2="1035.7" stroke="#C5A46D" stroke-opacity=".07"/><line x1="1325" y1="547.9" x2="1680" y2="1162.8" stroke="#C5A46D" stroke-opacity=".07"/><line x1="1303.3" y1="556.9" x2="1487.1" y2="1242.7" stroke="#C5A46D" stroke-opacity=".07"/><line x1="1280" y1="560" x2="1280" y2="1270" stroke="#C5A46D" stroke-opacity=".07"/><line x1="1256.7" y1="556.9" x2="1072.9" y2="1242.7" stroke="#C5A46D" stroke-opacity=".07"/><line x1="1235" y1="547.9" x2="880" y2="1162.8" stroke="#C5A46D" stroke-opacity=".07"/><line x1="1216.4" y1="533.6" x2="714.3" y2="1035.7" stroke="#C5A46D" stroke-opacity=".07"/><line x1="1202.1" y1="515" x2="587.2" y2="870" stroke="#C5A46D" stroke-opacity=".07"/><line x1="1193.1" y1="493.3" x2="507.3" y2="677.1" stroke="#C5A46D" stroke-opacity=".07"/><line x1="1190" y1="470" x2="480" y2="470" stroke="#C5A46D" stroke-opacity=".07"/><line x1="1193.1" y1="446.7" x2="507.3" y2="262.9" stroke="#C5A46D" stroke-opacity=".07"/><line x1="1202.1" y1="425" x2="587.2" y2="70" stroke="#C5A46D" stroke-opacity=".07"/><line x1="1216.4" y1="406.4" x2="714.3" y2="-95.7" stroke="#C5A46D" stroke-opacity=".07"/><line x1="1235" y1="392.1" x2="880" y2="-222.8" stroke="#C5A46D" stroke-opacity=".07"/><line x1="1256.7" y1="383.1" x2="1072.9" y2="-302.7" stroke="#C5A46D" stroke-opacity=".07"/><line x1="1280" y1="380" x2="1280" y2="-330" stroke="#C5A46D" stroke-opacity=".07"/><line x1="1303.3" y1="383.1" x2="1487.1" y2="-302.7" stroke="#C5A46D" stroke-opacity=".07"/><line x1="1325" y1="392.1" x2="1680" y2="-222.8" stroke="#C5A46D" stroke-opacity=".07"/><line x1="1343.6" y1="406.4" x2="1845.7" y2="-95.7" stroke="#C5A46D" stroke-opacity=".07"/><line x1="1357.9" y1="425" x2="1972.8" y2="70" stroke="#C5A46D" stroke-opacity=".07"/><line x1="1366.9" y1="446.7" x2="2052.7" y2="262.9" stroke="#C5A46D" stroke-opacity=".07"/><circle cx="1280" cy="470" r="46" fill="#0e172a" stroke="#C5A46D" stroke-width="2"/><text x="1280" y="490" text-anchor="middle" font-family="Georgia,serif" font-size="58" fill="#C5A46D">©</text><rect y="620" width="1920" height="460" fill="url(#fdp)"/></svg>