<svg xmlns="http://www.w3.org/2000/svg" viewBox="0 0 1200 800" preserveAspectRatio="xMidYMid slice"><defs><linearGradient id="g" x1="0" y1="1" x2="1" y2="0"><stop offset="0" stop-color="#0B1220"/><stop offset="1" stop-color="#1f2b3f"/></linearGradient></defs><rect width="1200" height="800" fill="url(#g)"/><line x1="0" y1="800" x2="460" y2="250" stroke="#C5A46D" stroke-opacity=".22"/><line x1="80" y1="800" x2="480" y2="250" stroke="#C5A46D" stroke-opacity=".22"/><line x1="160" y1="800" x2="500" y2="250" stroke="#C5A46D" stroke-opacity=".22"/><line x1="240" y1="800" x2="520" y2="250" stroke="#C5A46D" stroke-opacity=".22"/><line x1="320" y1="800" x2="540" y2="250" stroke="#C5A46D" stroke-opacity=".22"/><line x1="400" y1="800" x2="560" y2="250" stroke="#C5A46D" stroke-opacity=".22"/><line x1="480" y1="800" x2="580" y2="250" stroke="#C5A46D" stroke-opacity=".22"/><line x1="560" y1="800" x2="600" y2="250" stroke="#C5A46D" stroke-opacity=".22"/><line x1="640" y1="800" x2="620" y2="250" stroke="#C5A46D" stroke-opacity=".22"/><line x1="720" y1="800" x2="640" y2="250" stroke="#C5A46D" stroke-opacity=".22"/><line x1="800" y1="800" x2="660" y2="250" stroke="#C5A46D" stroke-opacity=".22"/><line x1="880" y1="800" x2="680" y2="250" stroke="#C5A46D" stroke-opacity=".22"/><line x1="960" y1="800" x2="700" y2="250" stroke="#C5A46D" stroke-opacity=".22"/><line x1="1040" y1="800" x2="720" y2="250" stroke="#C5A46D" stroke-opacity=".22"/><line x1="1120" y1="800" x2="740" y2="250" stroke="#C5A46D" stroke-opacity=".22"/><line x1="1200" y1="800" x2="760" y2="250" stroke="#C5A46D" stroke-opacity=".22"/><line x1="0" y1="793" x2="1200" y2="793" stroke="#C5A46D" stroke-opacity=".18"/><line x1="0" y1="772" x2="1200" y2="772" stroke="#C5A46D" stroke-opacity=".18"/><line x1="0" y1="737" x2="1200" y2="737" stroke="#C5A46D" stroke-opacity=".18"/><line x1="0" y1="688" x2="1200" y2="688" stroke="#C5A46D" stroke-opacity=".18"/><line x1="0" y1="625" x2="1200" y2="625" stroke="#C5A46D" stroke-opacity=".18"/><line x1="0" y1="548" x2="1200" y2="548" stroke="#C5A46D" stroke-opacity=".18"/><line x1="0" y1="457" x2="1200" y2="457" stroke="#C5A46D" stroke-opacity=".18"/><line x1="0" y1="352" x2="1200" y2="352" stroke="#C5A46D" stroke-opacity=".18"/><polygon points="600,120 690,270 510,270" fill="none" stroke="#E9D3A4" stroke-width="1.4"/><line x1="600" y1="170" x2="600" y2="230" stroke="#E9D3A4" stroke-width="2"/><circle cx="600" cy="250" r="3" fill="#E9D3A4"/></svg>