<svg xmlns="http://www.w3.org/2000/svg" viewBox="0 0 1920 1080" preserveAspectRatio="xMidYMid slice">
<defs><radialGradient id="c" cx="960" cy="540" r="700" gradientUnits="userSpaceOnUse"><stop offset="0" stop-color="#F0DDB0" stop-opacity=".75"/><stop offset=".3" stop-color="#C5A46D" stop-opacity=".25"/><stop offset="1" stop-color="#0B1220" stop-opacity="0"/></radialGradient></defs><rect width="1920" height="1080" fill="#0c1321"/>
<rect x="-90" y="-60" width="2100" height="1200" fill="none" stroke="#C5A46D" stroke-opacity="0.55" stroke-width="2.4"/>
<rect x="-90" y="-60" width="2100" height="1200" fill="#0f1626" fill-opacity=".55"/>
<rect x="68" y="28" width="1792" height="1024" fill="none" stroke="#C5A46D" stroke-opacity="0.53" stroke-width="2.0"/>
<rect x="68" y="28" width="1792" height="1024" fill="#161e30" fill-opacity=".55"/>
<rect x="168" y="83" width="1600" height="914" fill="none" stroke="#C5A46D" stroke-opacity="0.50" stroke-width="1.8"/>
<rect x="168" y="83" width="1600" height="914" fill="#0f1626" fill-opacity=".55"/>
<rect x="254" y="130" width="1436" height="820" fill="none" stroke="#C5A46D" stroke-opacity="0.48" stroke-width="1.6"/>
<rect x="254" y="130" width="1436" height="820" fill="#161e30" fill-opacity=".55"/>
<rect x="332" y="172" width="1287" height="736" fill="none" stroke="#C5A46D" stroke-opacity="0.45" stroke-width="1.5"/>
<rect x="332" y="172" width="1287" height="736" fill="#0f1626" fill-opacity=".55"/>
<rect x="405" y="211" width="1150" height="657" fill="none" stroke="#C5A46D" stroke-opacity="0.43" stroke-width="1.3"/>
<rect x="405" y="211" width="1150" height="657" fill="#161e30" fill-opacity=".55"/>
<rect x="474" y="248" width="1021" height="583" fill="none" stroke="#C5A46D" stroke-opacity="0.40" stroke-width="1.2"/>
<rect x="474" y="248" width="1021" height="583" fill="#0f1626" fill-opacity=".55"/>
<rect x="539" y="283" width="898" height="513" fill="none" stroke="#C5A46D" stroke-opacity="0.38" stroke-width="1.0"/>
<rect x="539" y="283" width="898" height="513" fill="#161e30" fill-opacity=".55"/>
<rect x="602" y="317" width="780" height="446" fill="none" stroke="#C5A46D" stroke-opacity="0.35" stroke-width="0.9"/>
<rect x="602" y="317" width="780" height="446" fill="#0f1626" fill-opacity=".55"/>
<rect x="663" y="350" width="667" height="381" fill="none" stroke="#C5A46D" stroke-opacity="0.33" stroke-width="0.8"/>
<rect x="663" y="350" width="667" height="381" fill="#161e30" fill-opacity=".55"/>
<rect x="722" y="381" width="557" height="318" fill="none" stroke="#C5A46D" stroke-opacity="0.30" stroke-width="0.8"/>
<rect x="722" y="381" width="557" height="318" fill="#0f1626" fill-opacity=".55"/>
<rect x="779" y="411" width="450" height="257" fill="none" stroke="#C5A46D" stroke-opacity="0.28" stroke-width="0.8"/>
<rect x="779" y="411" width="450" height="257" fill="#161e30" fill-opacity=".55"/>
<rect x="835" y="441" width="347" height="198" fill="none" stroke="#C5A46D" stroke-opacity="0.25" stroke-width="0.8"/>
<rect x="835" y="441" width="347" height="198" fill="#0f1626" fill-opacity=".55"/>
<rect x="889" y="470" width="246" height="140" fill="none" stroke="#C5A46D" stroke-opacity="0.23" stroke-width="0.8"/>
<rect x="889" y="470" width="246" height="140" fill="#161e30" fill-opacity=".55"/>
<rect width="1920" height="1080" fill="url(#c)"/></svg>